<svg xmlns="http://www.w3.org/2000/svg" version="1.1" viewBox="0 0 654 654" width="654" height="654"><g stroke-width="2" fill="none" stroke-linecap="butt"><path stroke="#000000" d="M 346.24 248.07 A 20.28 20.28 0.0 0 0 325.96 227.79 A 20.28 20.28 0.0 0 0 305.68 248.07 A 20.28 20.28 0.0 0 0 325.96 268.35 A 20.28 20.28 0.0 0 0 346.24 248.07" data-c-stroke="7a320b" stroke-opacity="1"/><path stroke="#000000" d="M 403.90 271.86 A 20.48 20.48 0.0 0 0 383.42 251.38 A 20.48 20.48 0.0 0 0 362.94 271.86 A 20.48 20.48 0.0 0 0 383.42 292.34 A 20.48 20.48 0.0 0 0 403.90 271.86" data-c-stroke="791214" stroke-opacity="1"/><path stroke="#000000" d="M 288.26 271.91 A 20.24 20.24 0.0 0 0 268.02 251.67 A 20.24 20.24 0.0 0 0 247.78 271.91 A 20.24 20.24 0.0 0 0 268.02 292.15 A 20.24 20.24 0.0 0 0 288.26 271.91" data-c-stroke="7a6d0b" stroke-opacity="1"/><path stroke="#000000" d="M 264.63 328.71 A 20.25 20.25 0.0 0 0 244.38 308.46 A 20.25 20.25 0.0 0 0 224.13 328.71 A 20.25 20.25 0.0 0 0 244.38 348.96 A 20.25 20.25 0.0 0 0 264.63 328.71" data-c-stroke="Infinity" stroke-opacity="1"/><path stroke="#000000" d="M 288.42 385.45 A 20.33 20.33 0.0 0 0 268.09 365.12 A 20.33 20.33 0.0 0 0 247.76 385.45 A 20.33 20.33 0.0 0 0 268.09 405.78 A 20.33 20.33 0.0 0 0 288.42 385.45" data-c-stroke="174880" stroke-opacity="1"/><path stroke="#000000" d="M 346.27 409.14 A 20.30 20.30 0.0 0 0 325.97 388.84 A 20.30 20.30 0.0 0 0 305.67 409.14 A 20.30 20.30 0.0 0 0 325.97 429.44 A 20.30 20.30 0.0 0 0 346.27 409.14" data-c-stroke="5c1562" stroke-opacity="1"/></g><path fill="#000000" d="M 640.51 321.46 C 643.71 324.83 642.78 329.89 639.70 333.45 Q 622.28 353.53 615.29 360.30 Q 599.19 375.90 594.00 380.75 Q 545.43 426.12 487.57 458.55 C 442.22 483.97 391.98 499.53 340.03 502.74 Q 319.54 504.00 298.62 501.71 Q 258.67 497.34 225.09 485.61 C 167.10 465.35 113.07 430.85 66.82 389.77 C 52.73 377.25 38.78 363.18 24.84 348.48 Q 19.33 342.67 11.19 332.77 C 6.57 327.15 9.61 322.07 13.89 317.65 Q 37.79 292.95 52.81 279.06 C 89.70 244.93 129.84 214.89 174.16 191.95 Q 206.91 175.00 242.63 164.10 Q 309.59 143.68 377.83 156.95 C 454.43 171.85 523.34 212.43 582.01 262.75 Q 595.72 274.51 607.34 286.65 Q 619.46 299.31 640.51 321.46 Z M 603.92 326.43 C 597.85 319.46 591.37 313.31 579.99 302.01 Q 538.50 260.76 486.99 230.01 C 449.50 207.63 410.85 191.98 368.26 184.72 Q 339.44 179.81 307.74 181.81 Q 279.70 183.58 248.24 192.99 C 205.67 205.72 166.45 227.20 130.77 253.28 Q 108.97 269.22 92.64 283.14 Q 74.26 298.80 53.38 319.63 Q 50.08 322.93 47.25 326.27 A 1.81 1.81 0.0 0 0 47.23 328.59 Q 50.11 332.05 52.96 334.94 C 64.83 346.97 78.09 360.42 91.96 372.36 Q 106.44 384.82 108.36 386.30 Q 144.74 414.29 173.50 430.56 Q 195.72 443.13 222.77 453.71 C 249.22 464.06 276.70 471.05 304.07 473.24 Q 315.93 474.19 318.26 474.27 Q 333.85 474.83 349.77 473.08 Q 410.46 466.39 464.64 437.66 Q 507.27 415.04 545.62 383.38 Q 574.97 359.16 602.77 330.03 Q 604.38 328.35 604.31 327.35 A 1.61 1.56 22.9 0 0 603.92 326.43 Z" data-c-fill="0"/><path fill="#000000" d="M 400.93 429.97 C 399.86 435.73 393.46 440.67 388.26 443.75 C 341.86 471.24 278.14 462.33 238.31 426.94 Q 206.45 398.64 196.74 355.73 C 188.28 318.35 197.87 279.04 221.07 248.86 C 256.47 202.80 318.94 185.41 373.68 206.37 C 418.58 223.56 451.76 265.05 457.00 313.22 Q 459.16 333.07 451.18 350.44 C 444.36 365.29 431.02 376.35 416.02 382.78 C 406.09 387.04 384.83 393.66 393.19 409.39 C 396.19 415.03 402.55 421.20 400.93 429.97 Z M 346.24 248.07 A 20.28 20.28 0.0 0 0 325.96 227.79 A 20.28 20.28 0.0 0 0 305.68 248.07 A 20.28 20.28 0.0 0 0 325.96 268.35 A 20.28 20.28 0.0 0 0 346.24 248.07 Z M 403.90 271.86 A 20.48 20.48 0.0 0 0 383.42 251.38 A 20.48 20.48 0.0 0 0 362.94 271.86 A 20.48 20.48 0.0 0 0 383.42 292.34 A 20.48 20.48 0.0 0 0 403.90 271.86 Z M 288.26 271.91 A 20.24 20.24 0.0 0 0 268.02 251.67 A 20.24 20.24 0.0 0 0 247.78 271.91 A 20.24 20.24 0.0 0 0 268.02 292.15 A 20.24 20.24 0.0 0 0 288.26 271.91 Z M 264.63 328.71 A 20.25 20.25 0.0 0 0 244.38 308.46 A 20.25 20.25 0.0 0 0 224.13 328.71 A 20.25 20.25 0.0 0 0 244.38 348.96 A 20.25 20.25 0.0 0 0 264.63 328.71 Z M 419.1205 324.3081 A 27.86 19.60 -42.5 0 0 385.3384 328.6794 A 27.86 19.60 -42.5 0 0 378.0395 361.9519 A 27.86 19.60 -42.5 0 0 411.8216 357.5806 A 27.86 19.60 -42.5 0 0 419.1205 324.3081 Z M 288.42 385.45 A 20.33 20.33 0.0 0 0 268.09 365.12 A 20.33 20.33 0.0 0 0 247.76 385.45 A 20.33 20.33 0.0 0 0 268.09 405.78 A 20.33 20.33 0.0 0 0 288.42 385.45 Z M 346.27 409.14 A 20.30 20.30 0.0 0 0 325.97 388.84 A 20.30 20.30 0.0 0 0 305.67 409.14 A 20.30 20.30 0.0 0 0 325.97 429.44 A 20.30 20.30 0.0 0 0 346.27 409.14 Z" data-c-fill="0"/><circle fill="#f46416" cx="325.96" cy="248.07" r="20.28" data-c-fill="f46416"/><circle fill="#f22427" cx="383.42" cy="271.86" r="20.48" data-c-fill="f22427"/><circle fill="#f4da16" cx="268.02" cy="271.91" r="20.24" data-c-fill="f4da16"/><circle fill="#3cbf25" cx="244.38" cy="328.71" r="20.25" data-c-fill="3cbf25"/><circle fill="#2e90ff" cx="268.09" cy="385.45" r="20.33" data-c-fill="2e90ff"/><circle fill="#b729c4" cx="325.97" cy="409.14" r="20.3" data-c-fill="b729c4"/></svg>